<svg width="183" height="27" viewBox="0 0 183 27" fill="none" xmlns="http://www.w3.org/2000/svg">
<path d="M11.7422 19.6543L17.543 0.40625H23.4141L14.502 26H9L0.123047 0.40625H5.97656L11.7422 19.6543ZM38.9531 20.7266H29.707L27.9492 26H22.3418L31.8691 0.40625H36.7559L46.3359 26H40.7285L38.9531 20.7266ZM31.1309 16.4551H37.5293L34.3125 6.875L31.1309 16.4551ZM58.2012 16.6309H54V26H48.7266V0.40625H58.2363C61.2598 0.40625 63.5918 1.08008 65.2324 2.42773C66.873 3.77539 67.6934 5.67969 67.6934 8.14062C67.6934 9.88672 67.3125 11.3457 66.5508 12.5176C65.8008 13.6777 64.6582 14.6035 63.123 15.2949L68.6602 25.7539V26H63L58.2012 16.6309ZM54 12.3594H58.2539C59.5781 12.3594 60.6035 12.0254 61.3301 11.3574C62.0566 10.6777 62.4199 9.74609 62.4199 8.5625C62.4199 7.35547 62.0742 6.40625 61.3828 5.71484C60.7031 5.02344 59.6543 4.67773 58.2363 4.67773H54V12.3594ZM84.9902 19.2852C84.9902 18.2891 84.6387 17.5273 83.9355 17C83.2324 16.4609 81.9668 15.8984 80.1387 15.3125C78.3105 14.7148 76.8633 14.1289 75.7969 13.5547C72.8906 11.9844 71.4375 9.86914 71.4375 7.20898C71.4375 5.82617 71.8242 4.5957 72.5977 3.51758C73.3828 2.42773 74.502 1.57813 75.9551 0.96875C77.4199 0.359375 79.0605 0.0546875 80.877 0.0546875C82.7051 0.0546875 84.334 0.388672 85.7637 1.05664C87.1934 1.71289 88.3008 2.64453 89.0859 3.85156C89.8828 5.05859 90.2812 6.42969 90.2812 7.96484H85.0078C85.0078 6.79297 84.6387 5.88477 83.9004 5.24023C83.1621 4.58398 82.125 4.25586 80.7891 4.25586C79.5 4.25586 78.498 4.53125 77.7832 5.08203C77.0684 5.62109 76.7109 6.33594 76.7109 7.22656C76.7109 8.05859 77.127 8.75586 77.959 9.31836C78.8027 9.88086 80.0391 10.4082 81.668 10.9004C84.668 11.8027 86.8535 12.9219 88.2246 14.2578C89.5957 15.5938 90.2812 17.2578 90.2812 19.25C90.2812 21.4648 89.4434 23.2051 87.7676 24.4707C86.0918 25.7246 83.8359 26.3516 81 26.3516C79.0312 26.3516 77.2383 25.9941 75.6211 25.2793C74.0039 24.5527 72.7676 23.5625 71.9121 22.3086C71.0684 21.0547 70.6465 19.6016 70.6465 17.9492H75.9375C75.9375 20.7734 77.625 22.1855 81 22.1855C82.2539 22.1855 83.2324 21.9336 83.9355 21.4297C84.6387 20.9141 84.9902 20.1992 84.9902 19.2852ZM114.697 26H109.424V15.0312H99.1406V26H93.8672V0.40625H99.1406V10.7773H109.424V0.40625H114.697V26ZM124.928 26H119.654V0.40625H124.928V26ZM148.57 4.67773H140.73V26H135.457V4.67773H127.723V0.40625H148.57V4.67773ZM172.424 26H167.15V15.0312H156.867V26H151.594V0.40625H156.867V10.7773H167.15V0.40625H172.424V26ZM176.977 23.5039C176.977 22.6953 177.246 22.0391 177.785 21.5352C178.336 21.0312 179.021 20.7793 179.842 20.7793C180.674 20.7793 181.359 21.0312 181.898 21.5352C182.449 22.0391 182.725 22.6953 182.725 23.5039C182.725 24.3008 182.455 24.9512 181.916 25.4551C181.377 25.9473 180.686 26.1934 179.842 26.1934C179.01 26.1934 178.324 25.9473 177.785 25.4551C177.246 24.9512 176.977 24.3008 176.977 23.5039Z" fill="white"/>
</svg>
