<svg width="325" height="48" viewBox="0 0 325 48" fill="none" xmlns="http://www.w3.org/2000/svg">
<path d="M20.875 35.7188L31.1875 1.5H41.625L25.7812 47H16L0.21875 1.5H10.625L20.875 35.7188ZM69.25 37.625H52.8125L49.6875 47H39.7188L56.6562 1.5H65.3438L82.375 47H72.4062L69.25 37.625ZM55.3438 30.0312H66.7188L61 13L55.3438 30.0312ZM103.469 30.3438H96V47H86.625V1.5H103.531C108.906 1.5 113.052 2.69792 115.969 5.09375C118.885 7.48958 120.344 10.875 120.344 15.25C120.344 18.3542 119.667 20.9479 118.312 23.0312C116.979 25.0938 114.948 26.7396 112.219 27.9688L122.062 46.5625V47H112L103.469 30.3438ZM96 22.75H103.562C105.917 22.75 107.74 22.1562 109.031 20.9688C110.323 19.7604 110.969 18.1042 110.969 16C110.969 13.8542 110.354 12.1667 109.125 10.9375C107.917 9.70833 106.052 9.09375 103.531 9.09375H96V22.75ZM151.094 35.0625C151.094 33.2917 150.469 31.9375 149.219 31C147.969 30.0417 145.719 29.0417 142.469 28C139.219 26.9375 136.646 25.8958 134.75 24.875C129.583 22.0833 127 18.3229 127 13.5938C127 11.1354 127.688 8.94792 129.062 7.03125C130.458 5.09375 132.448 3.58333 135.031 2.5C137.635 1.41667 140.552 0.875 143.781 0.875C147.031 0.875 149.927 1.46875 152.469 2.65625C155.01 3.82292 156.979 5.47917 158.375 7.625C159.792 9.77083 160.5 12.2083 160.5 14.9375H151.125C151.125 12.8542 150.469 11.2396 149.156 10.0938C147.844 8.92708 146 8.34375 143.625 8.34375C141.333 8.34375 139.552 8.83333 138.281 9.8125C137.01 10.7708 136.375 12.0417 136.375 13.625C136.375 15.1042 137.115 16.3438 138.594 17.3438C140.094 18.3438 142.292 19.2812 145.188 20.1562C150.521 21.7604 154.406 23.75 156.844 26.125C159.281 28.5 160.5 31.4583 160.5 35C160.5 38.9375 159.01 42.0312 156.031 44.2812C153.052 46.5104 149.042 47.625 144 47.625C140.5 47.625 137.312 46.9896 134.438 45.7188C131.562 44.4271 129.365 42.6667 127.844 40.4375C126.344 38.2083 125.594 35.625 125.594 32.6875H135C135 37.7083 138 40.2188 144 40.2188C146.229 40.2188 147.969 39.7708 149.219 38.875C150.469 37.9583 151.094 36.6875 151.094 35.0625ZM203.906 47H194.531V27.5H176.25V47H166.875V1.5H176.25V19.9375H194.531V1.5H203.906V47ZM222.094 47H212.719V1.5H222.094V47ZM264.125 9.09375H250.188V47H240.812V9.09375H227.062V1.5H264.125V9.09375ZM306.531 47H297.156V27.5H278.875V47H269.5V1.5H278.875V19.9375H297.156V1.5H306.531V47ZM314.625 42.5625C314.625 41.125 315.104 39.9583 316.062 39.0625C317.042 38.1667 318.26 37.7188 319.719 37.7188C321.198 37.7188 322.417 38.1667 323.375 39.0625C324.354 39.9583 324.844 41.125 324.844 42.5625C324.844 43.9792 324.365 45.1354 323.406 46.0312C322.448 46.9062 321.219 47.3438 319.719 47.3438C318.24 47.3438 317.021 46.9062 316.062 46.0312C315.104 45.1354 314.625 43.9792 314.625 42.5625Z" fill="black"/>
</svg>
